<svg version="1.1" id="Layer_1" xmlns="http://www.w3.org/2000/svg" xmlns:xlink="http://www.w3.org/1999/xlink" x="0px" y="0px"
	 width="100%" viewBox="0 0 496 496" enable-background="new 0 0 496 496" xml:space="preserve">
<path fill="#000000" opacity="1.000000" stroke="none" 
	d="
M390.000000,497.000000 
	C304.312439,497.000000 218.624878,497.000000 132.450562,496.741821 
	C131.947037,495.317810 130.951782,494.873230 130.310486,494.132874 
	C124.101463,486.964722 116.123444,481.524384 110.547180,473.725830 
	C107.276596,469.151886 106.990303,464.750519 109.831093,459.786102 
	C114.237419,452.085815 113.354256,446.292633 107.059143,439.978577 
	C104.024292,436.934570 102.161720,433.382599 100.791122,429.353149 
	C95.443573,413.631805 87.620140,398.808899 84.039711,382.418823 
	C83.282494,378.952545 80.804375,375.877075 79.224373,372.571259 
	C77.790314,369.570892 76.096451,366.611816 75.232338,363.439728 
	C73.602234,357.455688 69.781586,353.570251 64.420975,351.103607 
	C61.178894,349.611694 59.117168,347.306732 57.544079,344.218201 
	C53.841629,336.949066 50.425095,329.546631 46.301563,322.471985 
	C42.985008,316.781830 42.786922,310.769043 47.444977,305.251709 
	C49.151951,303.229858 50.874363,300.926758 50.782722,298.132751 
	C50.544754,290.877167 53.064697,284.009308 53.516792,276.865967 
	C54.089870,267.811127 58.577579,260.802307 65.114967,254.940125 
	C69.987190,250.571136 74.170883,245.607666 77.707100,240.164215 
	C83.350693,231.476791 89.113289,222.960007 97.582458,216.672012 
	C99.896835,214.953720 101.310822,212.476868 102.634811,209.931885 
	C108.574837,198.513962 109.857414,186.551804 107.206619,174.029663 
	C106.171501,169.139862 105.129425,164.137283 107.155190,159.254333 
	C110.215256,151.878250 113.049400,144.367889 119.131798,138.711777 
	C123.395294,134.747086 127.431519,130.538742 131.671066,126.547363 
	C139.688873,118.998878 146.965637,110.900612 153.400833,101.874130 
	C162.716858,88.806778 173.630341,77.434090 188.227097,69.628677 
	C205.411102,60.439758 223.721359,54.334972 242.003967,48.201160 
	C254.894684,43.876328 268.105499,39.708435 282.073975,40.788231 
	C298.926971,42.091011 314.985596,45.679504 328.141907,57.433220 
	C333.149902,61.907337 339.072815,64.762924 345.458344,67.101921 
	C356.097961,70.999161 365.925476,76.479683 375.117981,83.352463 
	C384.375488,90.273827 393.906860,97.077019 403.484192,103.280472 
	C411.588959,108.530106 419.612213,113.072502 425.528412,120.826180 
	C426.617157,122.253067 428.171844,123.370468 429.642487,124.452667 
	C441.663208,133.298355 451.628235,144.272858 461.597839,155.240707 
	C463.753937,157.612732 465.518829,160.265945 465.824005,163.572388 
	C466.894989,175.175583 468.808929,186.682114 469.088898,198.384354 
	C469.288147,206.713455 470.547394,215.102600 474.063965,222.724808 
	C478.879791,233.163315 480.978760,244.327240 483.098633,255.389801 
	C484.490326,262.652130 483.853119,270.414612 481.353149,277.594849 
	C479.517883,282.865997 478.658905,288.228546 478.144623,293.709351 
	C476.741119,308.665771 473.846924,323.374481 470.633179,338.020233 
	C470.070984,340.582336 469.036346,343.148865 467.704529,345.409790 
	C465.448486,349.239716 461.712189,352.184174 457.408905,351.008118 
	C451.313538,349.342224 447.520874,351.802490 443.818634,355.801697 
	C441.329590,358.490448 438.733337,361.080963 436.157684,363.688354 
	C431.724792,368.175781 429.364258,382.323944 432.921326,387.477325 
	C436.733612,393.000458 439.271790,399.208008 442.973877,404.714691 
	C450.397919,415.757599 451.274536,427.689728 448.278564,440.124939 
	C446.447418,447.725311 443.679993,455.100525 441.859039,462.702850 
	C440.626801,467.847351 437.791412,471.112976 433.364777,473.740967 
	C425.672394,478.307831 417.153503,479.567810 408.578766,480.876801 
	C399.927551,482.197449 395.045288,488.747101 389.769775,494.704834 
	C389.092773,495.469330 389.586334,496.266479 390.000000,497.000000 
M229.573380,202.102997 
	C203.987991,221.670746 178.402603,241.238480 152.817215,260.806213 
	C153.136887,261.263885 153.456573,261.721558 153.776260,262.179230 
	C166.498352,256.895691 177.818558,248.675735 191.375702,242.816315 
	C191.375702,250.808640 191.561874,257.619843 191.304825,264.414276 
	C191.154221,268.394836 192.118484,271.600677 195.303894,274.053833 
	C198.623352,276.610168 199.532928,279.945465 199.489716,284.124878 
	C199.293304,303.118256 199.399963,322.114899 199.423523,341.110352 
	C199.426178,343.248535 198.939072,345.618958 200.602478,347.331787 
	C204.778809,351.632172 209.009460,355.888428 213.391006,359.977386 
	C215.645386,362.081238 217.360443,361.469940 217.635498,358.238739 
	C217.776443,356.583069 217.716019,354.908661 217.715866,353.242737 
	C217.712448,315.251831 217.796173,277.260406 217.585098,239.270660 
	C217.557953,234.383560 219.049728,231.106552 222.917557,228.344177 
	C228.470078,224.378601 233.862076,220.178864 239.206863,215.933395 
	C263.332672,196.769714 287.353302,177.472672 311.582947,158.441528 
	C315.473907,155.385361 319.001434,152.251129 321.166962,147.832504 
	C324.550568,140.928436 328.947205,134.644135 332.906342,128.091995 
	C333.558105,127.013351 334.659851,126.013367 333.648438,123.718674 
	C299.028931,149.791977 264.587067,175.731491 229.573380,202.102997 
M283.118347,290.396851 
	C283.051392,288.362335 284.760132,287.593201 285.989594,286.591064 
	C296.441986,278.071381 306.920898,269.583893 317.442444,261.149872 
	C319.705078,259.336182 321.695587,257.662140 321.684235,254.306946 
	C321.605835,231.148972 321.661896,207.990555 321.655609,184.832291 
	C321.655212,183.351593 321.793060,181.652420 320.030060,180.997833 
	C318.552856,180.449387 317.528198,181.590408 316.540039,182.451096 
	C311.016083,187.262360 305.652649,192.270798 299.952087,196.861328 
	C296.865540,199.346893 295.983917,202.185944 296.030334,205.957993 
	C296.194336,219.284470 296.023132,232.614975 296.170837,245.941818 
	C296.213074,249.755371 295.052948,252.550522 292.019104,254.971008 
	C279.785004,264.731750 267.714050,274.696625 255.525177,284.514465 
	C249.555481,289.322906 249.396835,290.379456 254.726700,295.754395 
	C281.233276,322.485229 307.742584,349.213348 334.283905,375.909698 
	C336.441254,378.079681 338.846405,380.003265 341.390411,382.267365 
	C341.991455,379.870056 340.857025,378.716827 340.077698,377.522247 
	C333.074646,366.787598 326.017151,356.088562 318.984924,345.372925 
	C307.108582,327.275940 295.239075,309.174530 283.118347,290.396851 
z"/>
</svg>